<svg width="158" height="49" viewBox="0 0 158 49" fill="none" xmlns="http://www.w3.org/2000/svg">
    <path d="M8.33008 6.3954H0.626953V6.85283C3.79237 9.59741 3.79237 9.59741 3.79237 9.80478V34.2011C3.79237 34.4145 3.79237 34.4145 0.626953 37.1591V37.6165H8.15931C9.78776 37.6165 13.1605 37.7873 14.2584 37.7873C23.5473 38.0374 31.165 31.2491 31.165 21.1673C31.1894 10.6343 23.4009 5.10239 8.33008 6.3954ZM13.9473 35.2928C12.4135 35.3052 10.8857 35.0998 9.40961 34.6829V8.60326C20.6136 8.51787 25.0659 12.8055 25.0659 23.1313C25.0659 30.627 22.0713 35.2928 13.9473 35.2928ZM45.5161 37.1652V37.6226H35.1904V37.1652C37.7276 34.9208 37.7276 34.9208 37.7276 34.7256V21.0515C37.7276 20.8441 37.7276 20.8441 35.0257 18.7582V18.3435L42.8935 15.3488H42.9789V34.7073C42.9789 34.9208 42.9789 34.9208 45.5161 37.1652ZM39.966 5.75499C40.9365 5.75499 41.8673 6.14054 42.5536 6.82682C43.2399 7.5131 43.6254 8.44389 43.6254 9.41444C43.6254 10.385 43.2399 11.3158 42.5536 12.0021C41.8673 12.6883 40.9365 13.0739 39.966 13.0739C38.9954 13.0739 38.0646 12.6883 37.3783 12.0021C36.6921 11.3158 36.3065 10.385 36.3065 9.41444C36.3065 8.44389 36.6921 7.5131 37.3783 6.82682C38.0646 6.14054 38.9954 5.75499 39.966 5.75499ZM62.9107 15.916H69.8514V16.4589C68.5157 18.7094 68.2657 19.0815 68.1803 19.2034L61.0078 34.5426L59.6355 37.5921C55.4271 46.2955 53.5364 48.3387 48.6571 48.296V42.6605H50.3344C53.1705 42.6605 55.2136 41.7029 57.4581 37.6226H56.8482L47.5166 18.929C47.4739 18.8009 47.2239 18.4716 46.0163 16.3857V15.9282H55.3051V16.3857C53.9694 18.4716 53.8048 18.8253 53.8475 18.929L59.8428 31.981L64.6733 18.9107C64.716 18.7826 64.5086 18.4533 62.9229 16.3674L62.9107 15.916ZM93.8513 26.2052C93.8513 20.039 89.3563 15.3366 82.818 15.3366C75.9871 15.3366 71.0346 20.2464 71.0346 27.3701C71.0346 33.5729 75.5296 38.196 82.0679 38.196C88.911 38.2082 93.8635 33.335 93.8635 26.2174L93.8513 26.2052ZM76.6946 25.5343C76.6946 20.9539 78.4877 17.7519 81.6531 17.7519C85.8188 17.7519 88.1913 22.5762 88.1913 28.0349C88.1913 32.5726 86.3189 35.738 83.2328 35.738C79.0854 35.7502 76.7068 30.9625 76.7068 25.5465L76.6946 25.5343ZM104.488 35.6404C104.488 45.7161 98.8647 47.5031 94.4063 48.3814L94.327 47.8813C97.7425 45.2587 99.2367 42.508 99.2367 36.903V21.0515C99.2367 20.8441 99.2367 20.8441 96.5349 18.7582V18.3435L104.403 15.3488H104.488V35.6404ZM101.487 5.75499C101.994 5.7086 102.505 5.76834 102.987 5.93039C103.469 6.09244 103.912 6.35325 104.288 6.69616C104.664 7.03907 104.964 7.45656 105.169 7.92197C105.374 8.38738 105.48 8.89049 105.48 9.39919C105.48 9.90789 105.374 10.411 105.169 10.8764C104.964 11.3418 104.664 11.7593 104.288 12.1022C103.912 12.4451 103.469 12.7059 102.987 12.868C102.505 13.03 101.994 13.0898 101.487 13.0434C100.981 13.0898 100.47 13.03 99.9878 12.868C99.5056 12.7059 99.0625 12.4451 98.6868 12.1022C98.311 11.7593 98.0109 11.3418 97.8056 10.8764C97.6002 10.411 97.4941 9.90789 97.4941 9.39919C97.4941 8.89049 97.6002 8.38738 97.8056 7.92197C98.0109 7.45656 98.311 7.03907 98.6868 6.69616C99.0625 6.35325 99.5056 6.09244 99.9878 5.93039C100.47 5.76834 100.981 5.7086 101.487 5.75499ZM120.144 15.3366C114.692 15.3366 109.483 20.0817 109.483 27.1627C109.483 33.9876 113.606 38.196 119.894 38.196C124.639 38.196 127.823 35.616 129.043 32.4079L128.75 32.1579C126.776 33.297 124.533 33.8867 122.255 33.8656C117.717 33.8656 115.302 31.1149 115.094 26.1625H129.5C129.22 19.1364 125.768 15.3488 120.144 15.3488V15.3366ZM115.186 23.8753C115.521 19.545 117.229 17.5445 119.351 17.5445C121.474 17.5445 123.389 19.2095 123.725 23.5033L115.186 23.8753ZM157.269 37.1591V37.6165H147.005V37.1652C149.505 34.9208 149.505 34.9208 149.505 34.7256V24.2962C149.505 21.2466 148.212 19.3437 145.175 19.3437C143.603 19.3249 142.053 19.7114 140.674 20.466V34.7073C140.674 34.9208 140.674 34.9208 143.217 37.1469V37.6043H132.891V37.1652C135.429 34.9208 135.429 34.9208 135.429 34.7256V21.0515C135.429 20.8441 135.429 20.8441 132.721 18.7582V18.3435L140.601 15.3488H140.68V18.8009C141.54 17.7072 142.64 16.8267 143.896 16.2279C145.152 15.6292 146.529 15.3283 147.92 15.3488C152.189 15.3488 154.793 18.1361 154.793 22.9666V34.7073C154.793 34.9208 154.793 34.9208 157.288 37.1652L157.269 37.1591Z" fill="#ccc"/>
</svg>