<svg xmlns="http://www.w3.org/2000/svg" width="224" height="149" fill="none"><g filter="url(#a)"><path d="M197.862 141H26.138c-2.276 0-4.138-2.017-4.138-4.483V15.483C22 13.017 23.862 11 26.138 11h171.724c2.276 0 4.138 2.017 4.138 4.483v121.034c0 2.466-1.862 4.483-4.138 4.483z" fill="#fff"/></g><rect x="35" y="43" width="81" height="5" rx="2.5" fill="#D2D5D9"/><path d="M22 15a4 4 0 0 1 4-4h172a4 4 0 0 1 4 4v20H22V15z" fill="#399C97"/><path d="M34 23.774c1.763 0 1.861-1.774 3.918-1.774 2.107 0 2.107 2 4.164 2 2.057 0 2.155-1.774 4.114-1.774 1.96 0 1.91 1.774 3.918 1.774s2.155-1.774 4.066-1.774C56.09 22.226 56.776 24 58 24" stroke="#fff" stroke-width="2" stroke-linecap="round" stroke-linejoin="round"/><rect x="34" y="57" width="48" height="34" rx="3" fill="#F0F1F2"/><rect x="88" y="57" width="48" height="34" rx="3" fill="#F0F1F2"/><rect x="142" y="57" width="48" height="34" rx="3" fill="#F0F1F2"/><rect x="34" y="97" width="48" height="34" rx="3" fill="#F0F1F2"/><rect x="88" y="97" width="48" height="34" rx="3" fill="#F0F1F2"/><rect x="142" y="97" width="48" height="34" rx="3" fill="#F0F1F2"/><g filter="url(#b)"><path d="M206.818 22h-45.636A5.182 5.182 0 0 0 156 27.182v45.636A5.182 5.182 0 0 0 161.182 78h45.636A5.182 5.182 0 0 0 212 72.818V27.182A5.182 5.182 0 0 0 206.818 22z" fill="#fff"/></g><path d="M196.799 38.8a1.603 1.603 0 0 0-1.212-1.551 1.6 1.6 0 0 0-.701-.017l-16 3.2A1.601 1.601 0 0 0 177.599 42v14.582a6.977 6.977 0 0 0-1.6-.182c-2.651 0-4.8 1.432-4.8 3.2 0 1.768 2.149 3.2 4.8 3.2s4.8-1.432 4.8-3.2V46.512l12.8-2.56v9.43a6.977 6.977 0 0 0-1.6-.182c-2.651 0-4.8 1.432-4.8 3.2 0 1.768 2.149 3.2 4.8 3.2s4.8-1.432 4.8-3.2V38.8z" fill="#DE6A5A"/><g filter="url(#c)"><path d="M70.273 62H17.727A5.727 5.727 0 0 0 12 67.727v52.546A5.727 5.727 0 0 0 17.727 126h52.546A5.727 5.727 0 0 0 76 120.273V67.727A5.727 5.727 0 0 0 70.273 62z" fill="#fff"/></g><path fill-rule="evenodd" clip-rule="evenodd" d="M33.5 81.4a2.1 2.1 0 0 0-2.1 2.1v21c0 1.16.94 2.1 2.1 2.1h21a2.1 2.1 0 0 0 2.1-2.1v-21a2.1 2.1 0 0 0-2.1-2.1h-21zm7 4.9c1.54 0 2.8 1.26 2.8 2.8 0 1.54-1.26 2.8-2.8 2.8-1.54 0-2.8-1.26-2.8-2.8 0-1.54 1.26-2.8 2.8-2.8zm12.6 17.5H34.896a.693.693 0 0 1-.56-1.106l4.974-5.671a.698.698 0 0 1 1.008-.014L42.6 99.6l4.284-6.693a.7.7 0 0 1 1.176.028l5.655 9.815c.252.476-.084 1.05-.616 1.05z" fill="#E9AF58"/><defs><filter id="a" x="10.07" y=".626" width="203.86" height="153.86" filterUnits="userSpaceOnUse" color-interpolation-filters="sRGB"><feFlood flood-opacity="0" result="BackgroundImageFix"/><feColorMatrix in="SourceAlpha" values="0 0 0 0 0 0 0 0 0 0 0 0 0 0 0 0 0 0 127 0" result="hardAlpha"/><feOffset dy="1.556"/><feGaussianBlur stdDeviation="5.965"/><feColorMatrix values="0 0 0 0 0 0 0 0 0 0 0 0 0 0 0 0 0 0 0.09 0"/><feBlend in2="BackgroundImageFix" result="effect1_dropShadow_6812_199922"/><feColorMatrix in="SourceAlpha" values="0 0 0 0 0 0 0 0 0 0 0 0 0 0 0 0 0 0 127 0" result="hardAlpha"/><feOffset dy="1.037"/><feGaussianBlur stdDeviation=".778"/><feColorMatrix values="0 0 0 0 0 0 0 0 0 0 0 0 0 0 0 0 0 0 0.12 0"/><feBlend in2="effect1_dropShadow_6812_199922" result="effect2_dropShadow_6812_199922"/><feBlend in="SourceGraphic" in2="effect2_dropShadow_6812_199922" result="shape"/></filter><filter id="b" x="144.07" y="11.626" width="79.86" height="79.86" filterUnits="userSpaceOnUse" color-interpolation-filters="sRGB"><feFlood flood-opacity="0" result="BackgroundImageFix"/><feColorMatrix in="SourceAlpha" values="0 0 0 0 0 0 0 0 0 0 0 0 0 0 0 0 0 0 127 0" result="hardAlpha"/><feOffset dy="1.556"/><feGaussianBlur stdDeviation="5.965"/><feColorMatrix values="0 0 0 0 0 0 0 0 0 0 0 0 0 0 0 0 0 0 0.09 0"/><feBlend in2="BackgroundImageFix" result="effect1_dropShadow_6812_199922"/><feColorMatrix in="SourceAlpha" values="0 0 0 0 0 0 0 0 0 0 0 0 0 0 0 0 0 0 127 0" result="hardAlpha"/><feOffset dy="1.037"/><feGaussianBlur stdDeviation=".778"/><feColorMatrix values="0 0 0 0 0 0 0 0 0 0 0 0 0 0 0 0 0 0 0.12 0"/><feBlend in2="effect1_dropShadow_6812_199922" result="effect2_dropShadow_6812_199922"/><feBlend in="SourceGraphic" in2="effect2_dropShadow_6812_199922" result="shape"/></filter><filter id="c" x=".07" y="51.626" width="87.86" height="87.86" filterUnits="userSpaceOnUse" color-interpolation-filters="sRGB"><feFlood flood-opacity="0" result="BackgroundImageFix"/><feColorMatrix in="SourceAlpha" values="0 0 0 0 0 0 0 0 0 0 0 0 0 0 0 0 0 0 127 0" result="hardAlpha"/><feOffset dy="1.556"/><feGaussianBlur stdDeviation="5.965"/><feColorMatrix values="0 0 0 0 0 0 0 0 0 0 0 0 0 0 0 0 0 0 0.09 0"/><feBlend in2="BackgroundImageFix" result="effect1_dropShadow_6812_199922"/><feColorMatrix in="SourceAlpha" values="0 0 0 0 0 0 0 0 0 0 0 0 0 0 0 0 0 0 127 0" result="hardAlpha"/><feOffset dy="1.037"/><feGaussianBlur stdDeviation=".778"/><feColorMatrix values="0 0 0 0 0 0 0 0 0 0 0 0 0 0 0 0 0 0 0.12 0"/><feBlend in2="effect1_dropShadow_6812_199922" result="effect2_dropShadow_6812_199922"/><feBlend in="SourceGraphic" in2="effect2_dropShadow_6812_199922" result="shape"/></filter></defs></svg>