<svg fill="#000" xmlns="http://www.w3.org/2000/svg"><path fill-rule="evenodd" clip-rule="evenodd" d="M17.3.2h-.6v3.2h.7V2.2h.5c.4 0 .7 0 .9-.2.2-.2.3-.4.3-.7v-.1c0-.4-.1-.6-.3-.8l-1-.2h-.5Zm1 1.4-.5.1h-.4v-1h.4l.4.1.1.4v.4Zm-5.4 1.1v-.1l-.1-.2c-.1-.5 0-.9.2-1.2.2-.3.5-.5 1-.6.3-.1.7 0 1 .1.4.2.6.5.7 1V2c.2.5.1.9 0 1.2-.2.3-.6.5-1 .7-.5 0-.9 0-1.2-.2-.3-.2-.5-.5-.6-1Zm2.1-.5V2a1 1 0 0 0-.4-.6.7.7 0 0 0-.6-.1c-.2 0-.3.1-.4.3v1l.4.6h.5c.3 0 .4-.1.5-.3v-.7Zm-5.7.2-.3.2.7 1.5.8 1.4.3-.2.3-.1-.3-.6-.3-.6.5-.3.5-.2.3.6.3.6.3-.2.4-.2L12 3l-.7-1.5-.3.2-.4.2.3.5.3.6-.5.3-.5.2-.3-.6-.3-.5-.3.1ZM8.3 7c.2 0 .5-.1.8-.4.3-.2.5-.5.5-.8 0-.2 0-.5-.2-.7a.9.9 0 0 0-.7-.4 2 2 0 0 0-.8.3l-.5.1h-.2v-.6l.4-.1.3.1.2-.3.3-.2a1 1 0 0 0-.7-.3c-.2 0-.5.1-.8.4-.2.2-.4.4-.4.7 0 .2 0 .5.2.7.2.2.4.4.6.4l.8-.3.5-.1h.3V6l-.1.3-.4.1-.4-.1-.2.2-.3.3c.2.2.5.3.8.3ZM20 .3h.4l.4.1-.3 1.6-.2 1.7-.4-.1h-.4l.3-1.7.2-1.6Zm3 .7-.9-.3-.5 1.6-.5 1.5.4.1.3.1.2-.6.2-.6.5.2.5.1V3l.1-.3-.4-.2-.5-.1.1-.4.1-.4.6.2.6.2.1-.3.1-.3-1-.3Zm1.6 2.6v-2l.3.1.4.2v1.3l.5-.4.5-.3.3.1.4.2-.9.6-.9.6-.3.6-.3.6-.4-.2H24l.3-.6.4-.7Zm5 1.4-.6-.7-1.2 1.2-1.1 1.2.7.7.8.7.2-.2.2-.2-.5-.5-.5-.4.3-.3.3-.3.3.3.4.4.2-.2.2-.2-.4-.3-.3-.4.2-.3.3-.2.4.4.5.5.2-.2.2-.3-.7-.7ZM32 7.8c.3.4.4.8.4 1.2-.1.3-.3.6-.7.9h-.2l-.1.2c-.4.2-.8.3-1.2.2-.3 0-.6-.3-1-.8l-.2-.4-.3-.5 1.3-.9 1.4-.9.3.5.3.5Zm-.7 0-.9.5-.8.6v.2l.2.1c.1.2.3.4.5.4s.4 0 .7-.2l.2-.2c.3-.1.4-.3.5-.5 0-.2 0-.4-.2-.6v-.2l-.2-.1Zm2.2 2.8-.1-.4-1.6.6-1.5.6.2.4.1.4 1.5-.7 1.6-.6-.2-.3Zm.1 2.1v-.4l-.2-.4h.3l.3-.1.3 1.1.3 1.2h-.3l-.3.1-.1-.4-.1-.4-1.3.4-1.3.3-.1-.4v-.4l1.2-.3 1.3-.3Zm1.1 2.7V15l-1.7.2-1.6.1v.8l1.7-.2 1.6-.1v-.4ZM33 16.8h.4c.5.1.8.3 1 .6.3.3.4.7.4 1 0 .5-.3.9-.5 1.1-.3.3-.7.4-1.2.3h-.4c-.5 0-.8-.2-1-.5-.3-.3-.4-.7-.4-1.1 0-.5.2-.8.5-1 .3-.3.7-.4 1.1-.4Zm-.2 2.2h1.1l.3-.6c0-.2 0-.4-.2-.5a1 1 0 0 0-.7-.3H33a1 1 0 0 0-.7.1c-.2.1-.3.3-.3.5 0 .3 0 .4.2.6l.6.2Zm1.3 2.7.2-.4-1.6-.6-1.5-.5-.1.3-.1.3 1 .4 1 .4-1.2.2-1.2.1-.1.4-.2.3 1.6.6 1.5.5.1-.3.1-.3-1-.4-.9-.3 1.1-.2 1.2-.1.1-.4ZM29.3 24c.2-.3.4-.5.7-.6h.8l-.2.4-.1.3H30c-.1 0-.2 0-.3.2l-.1.4.1.2c.2 0 .2.1.4 0 0 0 .2 0 .3-.2.3-.3.5-.5.8-.5l.7.1.4.6c0 .3 0 .6-.2.9l-.7.6a1 1 0 0 1-.7-.1l.2-.3.1-.3h.3l.3-.2V25c-.2-.1-.3-.1-.4 0 0 0-.2 0-.3.2a2 2 0 0 1-.7.5l-.8-.1a1 1 0 0 1-.4-.7c0-.2 0-.6.2-.9Zm-2 3c-.3 0-.6 0-.9.3-.3.2-.4.5-.5.8 0 .2 0 .5.3.7.2.3.4.4.6.4l.9-.3.4-.1h.3v.3l-.1.3-.4.1-.2-.1-.3.2-.2.3c.1.2.4.3.6.3.3 0 .5-.1.8-.4.3-.2.4-.4.5-.7 0-.3 0-.5-.2-.7-.2-.2-.4-.4-.6-.4-.3 0-.5 0-.9.3l-.4.1-.3-.1-.1-.3c0-.1 0-.2.2-.3.1-.1.3-.2.4-.1l.3.1.3-.2.2-.3a1 1 0 0 0-.7-.3Zm-.7 4.3-.4.1-.3.2-.3-.6-.3-.6-.5.3-.5.2.3.6.3.6-.3.2-.4.1-.7-1.4-.7-1.5.3-.1.3-.2.3.6.4.6.4-.2.5-.3-.3-.6-.3-.6.4-.2.3-.1.7 1.4.8 1.5Zm-3.9 0v-.2c-.1-.4-.4-.7-.7-1-.3-.1-.7-.2-1.1 0-.5 0-.8.2-1 .6a1 1 0 0 0-.1 1.1v.4c.1.4.4.7.7 1 .3.1.7.2 1.1 0 .5 0 .8-.3 1-.6.2-.3.3-.7.2-1.1v-.2Zm-2.1.5v-.2c-.2-.2-.1-.5 0-.7 0-.1.2-.3.4-.3l.6.1.3.6v.4c.2.2.1.5 0 .6 0 .2-.2.3-.4.4l-.6-.1a1 1 0 0 1-.3-.6v-.2Zm-1.8 1.9h-1.1c-.4 0-.7-.1-1-.3l-.2-.7v-.1c0-.4 0-.6.3-.8l.8-.2h.5v-1.2h.7v3.3Zm-1.1-1.6-.4.1-.1.4.1.4h.8v-.9h-.4ZM15 33.6h.4l.2-1.6.3-1.6h-.4l-.4-.1-.2 1.6-.3 1.6h.4Zm-1.7-.4-1-.3-.9-.3v-.3l.2-.3.6.2.6.2.1-.4.1-.4-.4-.1-.5-.2V31l.2-.2.4.1.5.2.2-.6.2-.6.4.1.3.1-.5 1.6-.5 1.5Zm-2.5-1.9v-1l.4-.7.3-.6-.3-.1-.3-.2-.4.6-.3.6-.9.6-.8.6.3.2.3.1.5-.4.6-.3v.6l-.1.7.4.2.3.2v-1Zm-4.3-1.7L6 29l-.7-.7.2-.2.2-.2.5.4.4.5.3-.3.2-.3-.3-.3-.4-.4.2-.2.2-.2.4.4.3.4.3-.3.3-.3-.5-.5-.5-.5.2-.2.3-.2.7.8.7.7-1.1 1.2-1.2 1.1ZM3.4 25c-.1.3 0 .7.3 1.2l.3.4.3.5 1.4-.9 1.3-.8-.3-.5-.3-.5c-.3-.4-.6-.7-1-.8-.3 0-.7 0-1 .3h-.2l-.2.2c-.3.2-.6.5-.6.9Zm1.9.6-1 .6V26l-.1-.1c-.2-.3-.2-.5-.2-.7 0-.2.2-.3.5-.5h.1l.2-.2.6-.2c.2 0 .4.2.5.4l.1.2.1.1-.8.6Zm-3-1.8v-.4l-.2-.3 1.5-.7 1.5-.6.1.4.2.3-1.5.6-1.5.7Zm-.1-2.2-.1-.4 1.3-.3 1.3-.3-.1-.4V20l-1.4.3-1.3.3v-.4l-.2-.4h-.3l-.3.2.3 1.1.3 1.2.3-.1h.3l-.1-.5ZM1 19v-.7l1.6-.2 1.6-.1v.3l.1.4-1.6.2L1 19Zm1.5-1.8h.2c.4 0 .8 0 1-.3.4-.2.6-.6.6-1 0-.5 0-.9-.3-1.1-.3-.3-.6-.5-1-.5h-.4c-.5-.1-.9 0-1.2.2l-.5 1c0 .5.1.9.4 1.2.2.3.6.5 1 .5h.2Zm.2-2.2h.2c.2 0 .5.1.6.3.2.1.2.3.2.5s-.1.4-.3.5a1 1 0 0 1-.7.2h-.3a1 1 0 0 1-.7-.3.6.6 0 0 1-.2-.6c0-.2.2-.4.3-.5l.7-.1h.2Zm-1.3-2.2.2-.4.1-.4 1.2-.2 1.1-.2-1-.3-1-.3.2-.3v-.4l1.6.6 1.6.5-.1.4-.2.3-1.2.2-1.3.2 1 .3 1.1.4v.3l-.2.3-1.5-.5-1.6-.5Zm4.2-2.3c.2 0 .5-.2.7-.6.2-.3.3-.6.2-.9a1 1 0 0 0-.4-.6c-.3-.2-.6-.2-.8-.1-.2 0-.4.2-.7.5l-.4.2H4l-.2-.2.1-.3.3-.2h.3l.1-.3.2-.3a1 1 0 0 0-.7 0c-.2 0-.5.2-.7.5-.2.3-.2.6-.2.8 0 .3.2.5.4.6.3.2.5.2.7.2.3 0 .5-.2.8-.5l.3-.3h.3l.2.3v.3l-.4.3h-.4L5 10l-.2.3c.3.1.5.1.8 0Z" fill="inherit"/><path d="M22 12.8v-.1h-1l-.8-.8h-.6l-.2-.4a1 1 0 0 0-1-.7h-.2a1 1 0 0 0-.8-.4c-.6 0-1.2.5-1.7 1.2l-.6 1.8-1.2.3c-.3.1-.3.2-.4.5l-1 7.2 7.6 1.3 3.3-.8-1.4-9.1Zm-2.8-.7-.6.2c0-.3 0-.7-.2-1.1.5 0 .7.6.8.9Zm-1 .3-1.2.4c0-.5.3-1 .6-1.2l.4-.4c.2.4.2.9.2 1.2Zm-.8-1.6.4.1-.5.4c-.4.4-.6 1-.8 1.6l-1 .3c.2-1 1-2.3 2-2.4Z" fill="url(#a)"/><path d="m18.3 14.4-.4 1.4s-.4-.2-.9-.2c-.7 0-.7.5-.7.7 0 .6 1.7.7 1.8 2.2 0 1.2-.6 2-1.6 2-1.2.1-2-.6-2-.6l.3-1s.7.4 1.2.4c.4 0 .5-.3.5-.5 0-.8-1.4-.8-1.5-2.1 0-1.2.7-2.3 2.3-2.5.7 0 1 .2 1 .2Z" fill="#fff"/><path d="M22 12.7h-1l-.8-.8v10.8l3.2-.8-1.4-9.1v-.1Z" fill="url(#b)"/><path d="M47.7 14.6c-2.2 0-3.8-1.2-4-3.2H45c.1 1.4 1.2 2.1 2.6 2.1 1.8 0 2.8-.8 2.8-1.8 0-1.1-.9-1.4-2.5-1.8l-1.3-.3C45.1 9.3 44 8.5 44 7c0-1.7 1.6-3 3.7-3s3.6 1.1 3.9 2.8h-1.4c-.4-1.1-1.3-1.6-2.5-1.6-1.3 0-2.4.6-2.4 1.5 0 1 .7 1.3 2.3 1.7l1.3.2c2 .5 3 1.2 3 2.8 0 1.9-1.7 3.1-4.2 3.1Zm12.5-6V4.3h1.4v10.2h-1.4V9.8h-5.4v4.7h-1.3V4.3h1.3v4.3h5.4Zm8 6c-3 0-5-2-5-5.2s2-5.3 5-5.3C71 4.1 73 6.2 73 9.4c0 3.1-2 5.2-4.9 5.2Zm0-1.1c2 0 3.4-1.7 3.4-4.1 0-2.4-1.4-4.1-3.5-4.1-2 0-3.4 1.7-3.4 4 0 2.5 1.4 4.2 3.4 4.2Zm6.5-9.2h3.8c2.4 0 3.9 1.1 3.9 3.2 0 2-1.5 3.2-4 3.2h-2.3v3.8h-1.4V4.3ZM76 9.5h2.4c1.6 0 2.4-.7 2.4-2 0-1.4-.8-2-2.4-2H76v4Zm9 5h-1.3V4.3h1.4v10.2Zm9-10.2v1.2h-5.2v3.3H94V10h-5v4.5h-1.4V4.3H94Zm7.9 0h1.5L99.6 10v4.4h-1.4V10l-4-5.8h1.6l3 4.5 3-4.5Zm6.5 5.5v3.5h5.4v1.2H107V4.3h6.7v1.2h-5.3v3.1h5.2v1.2h-5.2Zm7.2-5.5h3.5c3 0 5 1.7 5 5 0 3.4-2 5.2-5 5.2h-3.5V4.3Zm1.3 9h2.2c2.3 0 3.6-1.4 3.6-4 0-2.4-1.3-3.8-3.6-3.8H117v7.8Zm10.3 1.2H126V4.3h1.3v10.2Zm1.3-10.2h8.2v1.2h-3.5v9H132v-9h-3.4V4.3Zm10.8 10.2h-1.4V4.3h1.4v10.2Zm6.5.1c-2.9 0-4.9-2-4.9-5.2s2-5.3 5-5.3c2.8 0 4.8 2.1 4.8 5.3 0 3.1-2 5.2-4.9 5.2Zm0-1.1c2 0 3.5-1.7 3.5-4.1 0-2.4-1.4-4.1-3.5-4.1-2 0-3.4 1.7-3.4 4 0 2.5 1.4 4.2 3.4 4.2Zm14 1V4.2h1.4v10.2h-2.8l-4.6-10.2v10.2h-1.4V4.3h2.8l4.6 10.1Zm7 .1c-2.2 0-3.8-1.2-4-3.2h1.3c.2 1.4 1.3 2.1 2.7 2.1 1.8 0 2.8-.8 2.8-1.8 0-1.1-.9-1.4-2.5-1.8l-1.3-.3c-1.6-.3-2.8-1.1-2.8-2.6 0-1.7 1.7-2.9 3.7-2.9 2.2 0 3.7 1.1 4 2.8h-1.5c-.3-1.1-1.2-1.6-2.5-1.6s-2.3.6-2.3 1.5c0 1 .7 1.3 2.3 1.7l1.2.2c2.1.5 3 1.2 3 2.8 0 1.9-1.6 3.1-4.1 3.1Zm-119.1 15c-2.2 0-3.8-1.2-4-3.2H45c.1 1.4 1.2 2.1 2.6 2.1 1.8 0 2.8-.8 2.8-1.8 0-1.1-.9-1.4-2.5-1.8l-1.3-.3c-1.6-.3-2.7-1.1-2.7-2.6 0-1.7 1.6-2.9 3.7-2.9s3.6 1.1 3.9 2.8h-1.4c-.4-1.1-1.3-1.6-2.5-1.6-1.3 0-2.4.6-2.4 1.5 0 1 .7 1.3 2.3 1.7l1.3.2c2 .5 3 1.2 3 2.8 0 1.9-1.7 3.1-4.2 3.1Zm9.7 0c-2.9 0-4-1.5-4-4.2v-6.1h1.3v6.2c0 2 1 3 2.7 3 1.8 0 2.6-1 2.6-3v-6.2h1.4v6c0 2.8-1.1 4.3-4 4.3Zm17.8-10.3v10.2H74V19.3l-3 10.2h-3l-3-10.2v10.2h-1.3V19.3h2.8l3 10.2 3-10.2h2.8Zm14 0v10.2h-1.4V19.3l-3 10.2h-2.9l-3-10.2v10.2h-1.4V19.3h2.8l3 10.2 3-10.2h2.8Zm3.6 5.5v3.5h5.4v1.2h-6.8V19.3h6.7v1.2h-5.3v3.1H98v1.2h-5.2Zm12.4.3 2.7 4.4h-1.6l-2.5-4.2h-2.4v4.2H100V19.3h3.8c2.2 0 3.6 1.1 3.6 3 0 1.4-.8 2.4-2.2 2.8Zm-1.4-4.6h-2.4V24h2.4c1.4 0 2.2-.6 2.2-1.8 0-1.2-.8-1.8-2.2-1.8Zm8 .4v-1.6h1.5V21l-1 1.7h-.9l.8-1.8h-.5Zm8.1 4-4 3.5h6v1.1h-7.5V28l4.4-3.8c.8-.7 1.5-1.4 1.5-2.2 0-1-.8-1.8-2.2-1.8-1.3 0-2.2.6-2.3 2h-1.4c.1-2.1 1.8-3 3.7-3 2 0 3.6 1 3.6 2.8 0 1.2-.7 2-1.8 3Zm9.1.5h1.5v1.1H129v3h-1.3v-3h-5.4V25l4-5.7h2.7v6.1Zm-1.3-6-4.3 6h4.3v-6Z" fill="inherit"/><defs><linearGradient id="a" x1="29.8" y1="30.3" x2="1.1" y2="8.4" gradientUnits="userSpaceOnUse"><stop offset=".2" stop-color="#005F5E"/><stop offset=".3" stop-color="#00CDCB"/><stop offset=".6" stop-color="#005F5E"/></linearGradient><linearGradient id="b" x1="17.7" y1="13.5" x2="24.7" y2="25" gradientUnits="userSpaceOnUse"><stop offset=".1" stop-color="#005F5E"/><stop offset=".8" stop-color="#00A19F"/></linearGradient></defs></svg>
